<svg width="109.675" height="131.605" xmlns="http://www.w3.org/2000/svg" viewBox="195.163 9.198 109.675 131.605" style="background:0 0" preserveAspectRatio="xMidYMid"><defs><filter id="editing-vr"><feFlood flood-color="red" flood-opacity=".7" result="c1"/><feFlood flood-color="#00f" flood-opacity=".7" result="c3"/><feComposite operator="in" in="c1" in2="SourceAlpha" result="text-c1"/><feComposite operator="in" in="c3" in2="SourceAlpha" result="text-c3"/><feOffset in="text-c1" dx="3" dy="-1" result="text1"/><feOffset in="text-c3" dx="-3" dy="1" result="text3"/><feBlend in="SourceGraphic" in2="text1" mode="multiply" result="text4"/><feBlend in="text4" in2="text3" mode="multiply"/></filter></defs><g filter="url(#editing-vr)"><path d="M241.28 63.78v7.87q-1.75-.5-4.25-.56-2.25 0-4.47.53-2.22.53-3.53 1.78V99.28h-7.56V64.03h6.75l.81 3.62q.94-.93 1.97-1.68 1.03-.75 2.4-1.22 1.38-.47 3.25-.72 1.88-.25 4.63-.25zm37.25 34.25v1.25h-7.63V80.09q0-2.12-.18-4.06-.19-1.94-.88-3.44t-1.87-2.34q-1.19-.85-3.32-.85-.68 0-1.78.19-1.09.19-2.25.56-1.15.38-2.19.94-1.03.56-1.53 1.31V99.28h-7.56V50.72h7.56v16.87q.75-.69 1.91-1.4 1.16-.72 2.53-1.29 1.38-.56 2.81-.9 1.44-.35 2.82-.35 2.81 0 4.75 1.19 1.93 1.19 3.87 3.06 1.06 1.07 1.66 2.47.59 1.41.87 2.94t.35 3.09q.06 1.57.06 3.07v18.56z" fill="#444"/></g><style></style></svg>